<svg xmlns="http://www.w3.org/2000/svg" width="22.585" height="22.500" viewBox="0 0 22.585 22.500" fill="none">
  <path d="M 7.362 0.047 C 7.497 0 7.472 -0.014 7.594 0.015 C 7.75 0.155 9.045 2.613 9.247 2.953 C 9.277 3.003 9.392 3.269 9.393 3.347 C 9.394 3.373 9.397 3.394 9.374 3.411 C 9.023 3.666 8.486 3.798 8.085 3.988 C 7.766 4.139 7.557 4.249 7.264 4.412 C 4.332 6.038 2.22 9.105 2.029 12.604 C 1.965 13.772 2.159 15.526 2.687 16.574 C 2.132 14.22 2.187 11.793 3.429 9.669 C 4.854 7.231 7.22 5.688 9.853 5.026 C 10.28 4.918 12.667 4.425 12.951 4.621 C 13.284 4.852 14.668 7.585 15.003 8.177 C 11.577 8.117 8.369 8.612 5.734 11.167 C 4.584 12.282 3.689 14.183 3.68 15.823 C 3.675 16.885 3.734 17.924 4.208 18.896 C 4.133 18.507 4.053 18.126 4.001 17.729 C 3.6 14.656 5.296 12.053 7.912 10.746 C 10.916 9.243 14.468 9.34 17.664 10.033 C 18.284 10.167 19.822 10.379 20.141 10.961 C 20.884 12.322 21.657 13.679 22.4 15.041 C 22.462 15.155 22.532 15.284 22.585 15.402 C 21.813 14.982 21.202 14.569 20.375 14.201 C 16.974 12.69 13.09 11.863 9.464 12.979 C 7.999 13.434 6.406 14.527 5.688 15.953 C 5.153 17.035 5.057 18.295 5.422 19.451 C 5.726 20.443 6.392 21.494 7.105 22.254 C 7.182 22.337 7.276 22.353 7.321 22.47 L 7.298 22.5 C 7.098 22.495 6.784 22.353 6.59 22.279 C 5.377 21.813 4.332 21.049 3.442 20.074 C 1.139 17.51 -0.096 14.104 0.006 10.597 C 0.08 7.695 1.57 4.89 3.546 2.888 C 4.217 2.208 5.952 0.788 6.796 0.382 C 6.997 0.252 7.152 0.159 7.362 0.047 Z" fill="currentColor" fill-rule="nonzero"></path>
</svg>